<svg xmlns="http://www.w3.org/2000/svg" width="192" height="192" viewBox="0 0 192 192">
  <defs>
    <linearGradient id="bg" x1="0" y1="0" x2="1" y2="1">
      <stop offset="0%" stop-color="#050812"/>
      <stop offset="100%" stop-color="#142033"/>
    </linearGradient>
    <linearGradient id="n" x1="38" y1="40" x2="154" y2="152" gradientUnits="userSpaceOnUse">
      <stop offset="0%" stop-color="#f8fafc"/>
      <stop offset="44%" stop-color="#e5e7eb"/>
      <stop offset="100%" stop-color="#0ea5e9"/>
    </linearGradient>
    <linearGradient id="gold" x1="0" y1="0" x2="1" y2="1">
      <stop offset="0%" stop-color="#facc15"/>
      <stop offset="100%" stop-color="#f59e0b"/>
    </linearGradient>
    <filter id="glow" x="-40%" y="-40%" width="180%" height="180%">
      <feGaussianBlur stdDeviation="4" result="blur"/>
      <feMerge>
        <feMergeNode in="blur"/>
        <feMergeNode in="SourceGraphic"/>
      </feMerge>
    </filter>
  </defs>
  <rect width="192" height="192" rx="42" fill="url(#bg)"/>
  <g opacity="0.34" stroke="#0ea5e9" stroke-width="1">
    <path d="M36 54H156M36 78H156M36 102H156M36 126H156"/>
    <path d="M54 36V156M78 36V156M102 36V156M126 36V156"/>
  </g>
  <g fill="#0ea5e9" opacity="0.9">
    <circle cx="54" cy="54" r="2.8"/><circle cx="102" cy="78" r="2.8"/><circle cx="126" cy="126" r="2.8"/><circle cx="78" cy="150" r="2.8"/>
  </g>
  <g fill="url(#gold)">
    <circle cx="150" cy="54" r="3.2"/><circle cx="150" cy="126" r="3.2"/>
  </g>
  <path d="M50 143V49H72L120 110V49H142V143H121L72 81V143Z" fill="url(#n)" filter="url(#glow)"/>
  <path d="M50 143V49H72L120 110V49H142" fill="none" stroke="#f8fafc" stroke-width="4" stroke-linejoin="round" opacity="0.72"/>
  <path d="M43 148C74 166 119 166 149 145" fill="none" stroke="url(#gold)" stroke-width="4" stroke-linecap="round" opacity="0.85"/>
</svg>
