<svg xmlns="http://www.w3.org/2000/svg" width="192" height="192" viewBox="0 0 192 192">
  <defs>
    <linearGradient id="bg" x1="0" y1="0" x2="1" y2="1">
      <stop offset="0%" stop-color="#050812"/>
      <stop offset="100%" stop-color="#142033"/>
    </linearGradient>
    <linearGradient id="a" x1="42" y1="38" x2="150" y2="154" gradientUnits="userSpaceOnUse">
      <stop offset="0%" stop-color="#f8fafc"/>
      <stop offset="48%" stop-color="#e5e7eb"/>
      <stop offset="100%" stop-color="#0ea5e9"/>
    </linearGradient>
    <linearGradient id="gold" x1="0" y1="0" x2="1" y2="1">
      <stop offset="0%" stop-color="#facc15"/>
      <stop offset="100%" stop-color="#f59e0b"/>
    </linearGradient>
    <filter id="glow" x="-45%" y="-45%" width="190%" height="190%">
      <feGaussianBlur stdDeviation="4" result="blur"/>
      <feMerge><feMergeNode in="blur"/><feMergeNode in="SourceGraphic"/></feMerge>
    </filter>
  </defs>
  <rect width="192" height="192" rx="42" fill="url(#bg)"/>
  <g opacity="0.32" stroke="#0ea5e9" stroke-width="1">
    <path d="M36 56H156M36 82H156M36 108H156M36 134H156"/>
    <path d="M56 36V156M82 36V156M108 36V156M134 36V156"/>
  </g>
  <g opacity="0.9">
    <circle cx="56" cy="56" r="2.8" fill="#0ea5e9"/>
    <circle cx="108" cy="82" r="2.8" fill="#0ea5e9"/>
    <circle cx="134" cy="134" r="2.8" fill="#0ea5e9"/>
    <circle cx="150" cy="56" r="3.3" fill="url(#gold)"/>
    <circle cx="42" cy="134" r="3.3" fill="url(#gold)"/>
  </g>
  <path d="M48 144L86 46H107L145 144H119L113 126H80L74 144H48ZM87 104H106L96 74Z" fill="url(#a)" filter="url(#glow)"/>
  <path d="M48 144L86 46H107L145 144" fill="none" stroke="#f8fafc" stroke-width="4" stroke-linecap="round" stroke-linejoin="round" opacity="0.72"/>
  <path d="M70 150C90 160 116 160 136 148" fill="none" stroke="url(#gold)" stroke-width="4" stroke-linecap="round" opacity="0.9"/>
  <text x="96" y="178" text-anchor="middle" font-family="Arial, sans-serif" font-size="13" font-weight="900" fill="#facc15" letter-spacing="1.5">PRO</text>
</svg>
